<svg width="30" height="33" viewBox="0 0 30 33" fill="none" xmlns="http://www.w3.org/2000/svg">
<g clip-path="url(#clip0_1086_7463)">
<path fill-rule="evenodd" clip-rule="evenodd" d="M11.4121 14.8003H18.5872V1.77161H11.4121V14.8003Z" fill="#FF5F00"/>
<path fill-rule="evenodd" clip-rule="evenodd" d="M11.8675 8.28592C11.8675 5.64271 13.0923 3.28859 14.9995 1.77158C13.6046 0.661953 11.8448 0 9.93185 0C5.40334 0 1.73242 3.70979 1.73242 8.28592C1.73242 12.862 5.40334 16.5718 9.93185 16.5718C11.8448 16.5718 13.6046 15.9099 14.9995 14.8003C13.0923 13.283 11.8675 10.9291 11.8675 8.28592Z" fill="#EB001B"/>
<path fill-rule="evenodd" clip-rule="evenodd" d="M28.0111 13.4203V13.0988H27.9279L27.8325 13.3199L27.7368 13.0988H27.6537V13.4203H27.7122V13.1777L27.802 13.3869H27.8628L27.9525 13.1772V13.4203H28.0111ZM27.4847 13.4203V13.1535H27.5913V13.0992H27.3202V13.1535H27.4266V13.4203H27.4847ZM28.2671 8.2858C28.2671 12.8619 24.596 16.5717 20.0677 16.5717C18.1548 16.5717 16.3947 15.9098 15 14.8001C16.9072 13.2831 18.132 10.929 18.132 8.2858C18.132 5.64282 16.9072 3.2887 15 1.77145C16.3947 0.66183 18.1548 -0.00012207 20.0677 -0.00012207C24.596 -0.00012207 28.2671 3.70967 28.2671 8.2858Z" fill="#F79E1B"/>
</g>
<g clip-path="url(#clip1_1086_7463)">
<path d="M13 32.7078H10.5698L12.0899 23.4395H14.5199L13 32.7078Z" fill="#00579F"/>
<path d="M21.8095 23.6662C21.3302 23.4787 20.5699 23.2716 19.6298 23.2716C17.2299 23.2716 15.5399 24.5336 15.5295 26.3379C15.5096 27.6691 16.7395 28.4085 17.6594 28.8523C18.5996 29.3059 18.9192 29.6019 18.9192 30.0062C18.9096 30.6271 18.1595 30.9134 17.4598 30.9134C16.4895 30.9134 15.9697 30.7658 15.1796 30.4204L14.8596 30.2723L14.5195 32.3528C15.0895 32.6089 16.1396 32.8361 17.2299 32.8461C19.7798 32.8461 21.4399 31.6036 21.4596 29.6808C21.4693 28.6258 20.8198 27.8173 19.4197 27.1567C18.5697 26.7326 18.0492 26.4467 18.0492 26.0128C18.0591 25.6183 18.4894 25.2143 19.4489 25.2143C20.239 25.1945 20.8195 25.3818 21.2592 25.5692L21.479 25.6676L21.8095 23.6662V23.6662Z" fill="#00579F"/>
<path d="M25.0397 29.4243C25.2399 28.8919 26.01 26.8311 26.01 26.8311C25.9999 26.8509 26.2097 26.2889 26.3297 25.9438L26.4995 26.7424C26.4995 26.7424 26.9598 28.961 27.0597 29.4243C26.6799 29.4243 25.5197 29.4243 25.0397 29.4243ZM28.0395 23.4395H26.1597C25.5801 23.4395 25.1397 23.6069 24.8896 24.2085L21.2798 32.7077H23.8297C23.8297 32.7077 24.2495 31.5637 24.3398 31.3174C24.6195 31.3174 27.1001 31.3174 27.46 31.3174C27.5297 31.6428 27.7499 32.7077 27.7499 32.7077H30.0001L28.0395 23.4395V23.4395Z" fill="#00579F"/>
<path d="M8.5405 23.4395L6.16053 29.7596L5.90046 28.4778C5.46045 26.9988 4.08049 25.3918 2.54053 24.5928L4.7205 32.698H7.29038L11.1103 23.4395H8.5405V23.4395Z" fill="#00579F"/>
<path d="M3.94997 23.4395H0.0400005L0 23.6267C3.05002 24.3959 5.06999 26.2498 5.89991 28.4782L5.04992 24.2185C4.90999 23.6266 4.47995 23.459 3.94997 23.4395Z" fill="#FAA61A"/>
</g>
<defs>
<clipPath id="clip0_1086_7463">
<rect width="26.5345" height="16.5719" fill="white" transform="translate(1.73242)"/>
</clipPath>
<clipPath id="clip1_1086_7463">
<rect width="30" height="9.57447" fill="white" transform="translate(0 23.2716)"/>
</clipPath>
</defs>
</svg>
