<svg width="62" height="39" viewBox="0 0 62 39" fill="none" xmlns="http://www.w3.org/2000/svg">
<g clip-path="url(#clip0_1078_4487)">
<path fill-rule="evenodd" clip-rule="evenodd" d="M22.3306 34.2862H38.599V4.66742H22.3306V34.2862Z" fill="#FF5F00"/>
<path fill-rule="evenodd" clip-rule="evenodd" d="M23.3635 19.4768C23.3635 13.4679 26.1405 8.11614 30.4648 4.66743C27.302 2.14487 23.3119 0.640015 18.9747 0.640015C8.70701 0.640015 0.383789 9.07368 0.383789 19.4768C0.383789 29.88 8.70701 38.3137 18.9747 38.3137C23.3119 38.3137 27.302 36.8088 30.4648 34.2862C26.1405 30.837 23.3635 25.4858 23.3635 19.4768Z" fill="#EB001B"/>
<path fill-rule="evenodd" clip-rule="evenodd" d="M59.9654 31.1493V30.4184H59.7769L59.5605 30.9212L59.3436 30.4184H59.1551V31.1493H59.2878V30.5978L59.4913 31.0735H59.6292L59.8326 30.5968V31.1493H59.9654ZM58.7718 31.1493V30.5429H59.0135V30.4194H58.399V30.5429H58.6401V31.1493H58.7718ZM60.5459 19.4768C60.5459 29.8799 52.2221 38.3136 41.955 38.3136C37.6178 38.3136 33.6271 36.8087 30.4648 34.2862C34.7891 30.8375 37.5661 25.4857 37.5661 19.4768C37.5661 13.4684 34.7891 8.1166 30.4648 4.66737C33.6271 2.14481 37.6178 0.639954 41.955 0.639954C52.2221 0.639954 60.5459 9.07362 60.5459 19.4768Z" fill="#F79E1B"/>
</g>
<defs>
<clipPath id="clip0_1078_4487">
<rect width="60.784" height="37.728" fill="white" transform="translate(0.383789 0.640015)"/>
</clipPath>
</defs>
</svg>
