<svg width="22" height="23" viewBox="0 0 22 23" fill="none" xmlns="http://www.w3.org/2000/svg">
<g clip-path="url(#clip0_1086_7478)">
<path d="M20.9995 14.9202H0.999523C0.449523 14.9202 -0.000488281 14.4702 -0.000488281 13.9202V2.92018C-0.000488281 2.37018 0.449523 1.92017 0.999523 1.92017H20.9995C21.5495 1.92017 21.9996 2.37018 21.9996 2.92018V13.9202C21.9995 14.4702 21.5495 14.9202 20.9995 14.9202Z" fill="#0E9347"/>
<path d="M18.4993 10.92C17.3493 10.92 16.2993 11.47 15.6993 12.37C15.1993 12.1201 14.6493 11.9201 13.9993 11.9201C12.2493 11.9201 10.7993 13.2201 10.5493 14.92H20.9993C21.4993 14.92 21.8993 14.5701 21.9993 14.07C21.7993 12.32 20.2993 10.92 18.4993 10.92Z" fill="#0D8944"/>
<path d="M19 13.9202H2.99998C2.99998 12.8202 2.1 11.9203 1 11.9203V4.92027C2.1 4.92027 2.99998 4.02029 2.99998 2.92029H19C19 4.02029 19.9 4.92027 21 4.92027V11.9203C19.9 11.9203 19 12.8202 19 13.9202Z" fill="#3BB54A"/>
<path d="M18.4991 10.9202C17.3491 10.9202 16.2991 11.4702 15.6991 12.3702C15.1991 12.1202 14.6491 11.9202 13.9991 11.9202C12.5991 11.9202 11.3991 12.7202 10.8491 13.9202H18.9991C18.9991 12.8202 19.8491 11.9702 20.9491 11.9202C20.2991 11.3202 19.4491 10.9202 18.4991 10.9202Z" fill="#0E9347"/>
<path d="M10.9995 12.9204C13.2087 12.9204 14.9995 10.9057 14.9995 8.4204C14.9995 5.93512 13.2087 3.92041 10.9995 3.92041C8.79038 3.92041 6.99951 5.93512 6.99951 8.4204C6.99951 10.9057 8.79038 12.9204 10.9995 12.9204Z" fill="#0E9347"/>
<path d="M4.99952 9.42007C5.55181 9.42007 5.99953 8.97235 5.99953 8.42005C5.99953 7.86776 5.55181 7.42004 4.99952 7.42004C4.44723 7.42004 3.99951 7.86776 3.99951 8.42005C3.99951 8.97235 4.44723 9.42007 4.99952 9.42007Z" fill="#0E9347"/>
<path d="M16.9995 9.42007C17.5518 9.42007 17.9995 8.97235 17.9995 8.42005C17.9995 7.86776 17.5518 7.42004 16.9995 7.42004C16.4472 7.42004 15.9995 7.86776 15.9995 8.42005C15.9995 8.97235 16.4472 9.42007 16.9995 9.42007Z" fill="#0E9347"/>
<path d="M11.5 7.92009H10.4999C10.1999 7.92009 9.99997 7.72007 9.99997 7.4201C9.99997 7.1201 10.2 6.92012 10.4999 6.92012H11.9999C12.2999 6.92012 12.4999 6.7201 12.4999 6.42014C12.4999 6.12013 12.2999 5.92015 11.9999 5.92015H11.5C11.5 5.62014 11.2999 5.42017 11 5.42017C10.7 5.42017 10.5 5.62019 10.5 5.92015C9.64999 5.92015 9 6.57014 9 7.42015C9 8.27016 9.64999 8.92014 10.5 8.92014H11.5C11.8 8.92014 12 9.12016 12 9.42013C12 9.72014 11.8 9.92011 11.5 9.92011H10C9.7 9.92011 9.50003 10.1201 9.50003 10.4201C9.50003 10.7201 9.70004 10.9201 10 10.9201H10.5C10.5 11.2201 10.7 11.4201 11 11.4201C11.3 11.4201 11.5 11.22 11.5 10.9201C12.35 10.9201 12.9999 10.2701 12.9999 9.42009C12.9999 8.57008 12.35 7.92009 11.5 7.92009Z" fill="#89C763"/>
<path d="M12.9995 18.9202C14.9325 18.9202 16.4995 17.3532 16.4995 15.4202C16.4995 13.4872 14.9325 11.9202 12.9995 11.9202C11.0665 11.9202 9.49951 13.4872 9.49951 15.4202C9.49951 17.3532 11.0665 18.9202 12.9995 18.9202Z" fill="#FFCA5D"/>
<path d="M17.4995 17.9201C19.4325 17.9201 20.9995 16.3531 20.9995 14.4201C20.9995 12.4871 19.4325 10.92 17.4995 10.92C15.5665 10.92 13.9995 12.4871 13.9995 14.4201C13.9995 16.3531 15.5665 17.9201 17.4995 17.9201Z" fill="#F6B545"/>
<path d="M17.4995 10.92C15.5495 10.92 13.9995 12.4701 13.9995 14.4201C13.9995 16.3701 15.5495 17.9201 17.4995 17.9201C19.4495 17.9201 20.9995 16.3701 20.9995 14.4201C20.9995 12.4701 19.4495 10.92 17.4995 10.92ZM17.4995 16.9201C16.0995 16.9201 14.9995 15.8201 14.9995 14.4201C14.9995 13.0201 16.0995 11.9201 17.4995 11.9201C18.8995 11.9201 19.9995 13.0201 19.9995 14.4201C19.9995 15.8201 18.8995 16.9201 17.4995 16.9201Z" fill="#FFCB5B"/>
<path d="M17.5 17.8699C19.45 17.9199 21 16.3199 21 14.4199H20.95C20.7 14.4199 20.5 14.6199 20.45 14.8699C20.35 15.5699 20 16.2199 19.5 16.6699C19.1 17.0699 18.55 17.3199 17.95 17.4199C17.7 17.4199 17.5 17.6199 17.5 17.8699Z" fill="#F6B545"/>
<path d="M17.4995 10.9701C15.5495 10.9201 13.9995 12.5202 13.9995 14.4201H14.0495C14.2995 14.4201 14.4995 14.2201 14.5495 13.9701C14.6495 13.2701 14.9995 12.6201 15.4995 12.1701C15.8995 11.7701 16.4495 11.5201 17.0495 11.4201C17.2995 11.4201 17.4995 11.2201 17.4995 10.9701Z" fill="#FFE27A"/>
<path d="M15.3495 14.7702C15.3495 13.3701 16.4495 12.2701 17.8495 12.2701C18.4495 12.2701 18.9995 12.4702 19.4495 12.8702C18.9495 12.2701 18.2995 11.9202 17.4995 11.9202C16.0995 11.9202 14.9995 13.0202 14.9995 14.4202C14.9995 15.2202 15.3495 15.8702 15.8995 16.3202C15.5495 15.9202 15.3495 15.3702 15.3495 14.7702Z" fill="#F19920"/>
<path d="M18.9994 15.9699C18.9494 15.9699 18.8994 15.9699 18.8494 15.9199C18.7494 15.8199 18.7494 15.6699 18.8494 15.5699C19.1494 15.2699 19.2994 14.8199 19.2994 14.4199C19.2994 14.2699 19.3994 14.1699 19.5494 14.1699C19.6994 14.1699 19.7994 14.2699 19.7994 14.4199C19.7994 14.9699 19.5994 15.5199 19.2494 15.9199C19.1494 15.9699 19.0494 15.9699 18.9994 15.9699Z" fill="#FFCB5B"/>
<path d="M17.4995 15.9201C17.1995 15.9201 16.9995 15.7201 16.9995 15.4201V13.4202C16.9995 13.1201 17.1995 12.9202 17.4995 12.9202C17.7995 12.9202 17.9995 13.1202 17.9995 13.4202V15.4201C17.9995 15.7201 17.7995 15.9201 17.4995 15.9201Z" fill="#F19920"/>
<path d="M19.3498 17.3701C18.9998 16.1201 18.0998 15.1201 16.9498 14.6702C16.7498 13.5201 15.9998 12.5202 15.0498 11.9202C14.4498 12.5702 14.0498 13.4202 14.0498 14.3702C14.0498 16.3202 15.5998 17.8702 17.5498 17.8702C18.1999 17.9201 18.7998 17.7202 19.3498 17.3701Z" fill="#F19920"/>
<path d="M15.8995 16.3202C15.5496 15.8701 15.2995 15.3201 15.2995 14.7202C15.2995 14.0202 15.5995 13.3702 16.0995 12.9202C15.9995 12.7702 15.8995 12.6702 15.7995 12.5702C15.2995 13.0202 14.9995 13.6702 14.9995 14.4202C14.9996 15.2202 15.3495 15.8701 15.8995 16.3202Z" fill="#E78825"/>
<path d="M16.9995 14.72V15.42C16.9995 15.72 17.1995 15.92 17.4995 15.92C17.7995 15.92 17.9995 15.7199 17.9995 15.42V15.32C17.6995 15.07 17.3495 14.87 16.9995 14.72Z" fill="#E78825"/>
<path d="M19.3495 17.3699C19.2495 17.0199 19.1495 16.7199 18.9495 16.4199C18.5495 16.7199 18.0495 16.9199 17.4995 16.9199C16.0995 16.9199 14.9995 15.8199 14.9995 14.4199C14.9995 13.6699 15.2995 13.0199 15.7995 12.5699C15.5495 12.3199 15.2995 12.1199 14.9995 11.9698C14.3995 12.6198 13.9995 13.4698 13.9995 14.4198C13.9995 16.3698 15.5495 17.9199 17.4995 17.9199C18.1995 17.9199 18.7995 17.7199 19.3495 17.3699Z" fill="#F6B545"/>
<path d="M19.2 16.9199C18.85 17.1699 18.4 17.3199 17.95 17.4199C17.7 17.4699 17.5 17.6699 17.5 17.9199C18.2 17.9199 18.8 17.7199 19.35 17.3699C19.3 17.2199 19.25 17.0699 19.2 16.9199Z" fill="#F19920"/>
<path d="M14.9995 11.9701C14.3995 12.6201 13.9995 13.4701 13.9995 14.4201H14.0495C14.2995 14.4201 14.4995 14.2201 14.5495 13.9701C14.6495 13.2701 14.9995 12.6701 15.4495 12.2201C15.2995 12.1701 15.1495 12.0701 14.9995 11.9701Z" fill="#FFCB5B"/>
<path d="M12.9995 18.9202C14.9325 18.9202 16.4995 17.3532 16.4995 15.4202C16.4995 13.4872 14.9325 11.9202 12.9995 11.9202C11.0665 11.9202 9.49951 13.4872 9.49951 15.4202C9.49951 17.3532 11.0665 18.9202 12.9995 18.9202Z" fill="#F6B545"/>
<path d="M12.5 17.9199C12.5 18.2699 12.55 18.5699 12.65 18.92C12.75 18.92 12.9 18.92 13 18.92C14.95 18.92 16.5 17.3699 16.5 15.4199C16.5 15.07 16.45 14.7699 16.35 14.4199C16.25 14.4199 16.1 14.4199 16 14.4199C14.05 14.42 12.5 15.97 12.5 17.9199Z" fill="#F19920"/>
<path d="M12.9995 11.9202C11.0495 11.9202 9.49951 13.4702 9.49951 15.4202C9.49951 17.3702 11.0495 18.9202 12.9995 18.9202C14.9495 18.9202 16.4995 17.3702 16.4995 15.4202C16.4995 13.4702 14.9495 11.9202 12.9995 11.9202ZM12.9995 17.9202C11.5995 17.9202 10.4995 16.8202 10.4995 15.4201C10.4995 14.0201 11.5995 12.9201 12.9995 12.9201C14.3995 12.9201 15.4995 14.0201 15.4995 15.4201C15.4995 16.8202 14.3995 17.9202 12.9995 17.9202Z" fill="#FFCB5B"/>
<path d="M12.9995 18.87C14.9495 18.92 16.4995 17.32 16.4995 15.42H16.4495C16.1995 15.42 15.9995 15.6201 15.9495 15.8701C15.8495 16.5701 15.4995 17.22 14.9995 17.6701C14.5995 18.0701 14.0495 18.32 13.4495 18.4201C13.1995 18.42 12.9995 18.62 12.9995 18.87Z" fill="#F6B545"/>
<path d="M12.9995 11.9704C11.0495 11.9204 9.49951 13.5204 9.49951 15.4204H9.54953C9.79952 15.4204 9.99954 15.2204 10.0495 14.9704C10.1495 14.2704 10.4995 13.6204 10.9995 13.1704C11.3995 12.7704 11.9495 12.5204 12.5495 12.4203C12.7996 12.4203 12.9995 12.2204 12.9995 11.9704Z" fill="#FFE27A"/>
<path d="M10.8495 15.7702C10.8495 14.3701 11.9495 13.2701 13.3495 13.2701C13.9496 13.2701 14.4996 13.4702 14.9495 13.8702C14.4495 13.2701 13.7995 12.9202 12.9995 12.9202C11.5995 12.9202 10.4995 14.0202 10.4995 15.4202C10.4995 16.2202 10.8495 16.8702 11.3995 17.3202C11.0496 16.9202 10.8495 16.3702 10.8495 15.7702Z" fill="#F19920"/>
<path d="M14.4994 16.9703C14.4494 16.9703 14.3994 16.9703 14.3494 16.9203C14.2494 16.8203 14.2494 16.6703 14.3494 16.5703C14.6494 16.2703 14.7994 15.8203 14.7994 15.4203C14.7994 15.2703 14.8994 15.1703 15.0494 15.1703C15.1994 15.1703 15.2994 15.2703 15.2994 15.4203C15.2994 15.9703 15.0994 16.5203 14.7494 16.9203C14.6494 16.9703 14.5494 16.9703 14.4994 16.9703Z" fill="#FFCB5B"/>
<path d="M13 16.9204C12.7 16.9204 12.5 16.7203 12.5 16.4204V14.4204C12.5 14.1204 12.7 13.9204 13 13.9204C13.3 13.9204 13.5 14.1204 13.5 14.4204V16.4204C13.5 16.7203 13.3 16.9204 13 16.9204Z" fill="#F19920"/>
<path d="M15.3 14.4701C15.4 14.7701 15.5 15.0701 15.5 15.4201C15.5 16.8201 14.4 17.9201 13 17.9201C12.85 17.9201 12.65 17.9201 12.5 17.87V17.9201C12.5 18.27 12.55 18.5701 12.65 18.9201C12.75 18.9201 12.9 18.9201 13 18.9201C14.95 18.9201 16.5 17.3701 16.5 15.4201C16.5 15.0701 16.45 14.7701 16.35 14.42C16.25 14.42 16.1 14.42 16 14.42C15.7499 14.4201 15.55 14.4201 15.3 14.4701Z" fill="#F6B545"/>
<path d="M15.4995 21.9201C17.4325 21.9201 18.9996 20.3531 18.9996 18.4201C18.9996 16.4871 17.4325 14.92 15.4995 14.92C13.5665 14.92 11.9995 16.4871 11.9995 18.4201C11.9995 20.3531 13.5665 21.9201 15.4995 21.9201Z" fill="#F6B545"/>
<path d="M15.4995 14.9202C13.5495 14.9202 11.9995 16.4702 11.9995 18.4202C11.9995 20.3702 13.5495 21.9202 15.4995 21.9202C17.4495 21.9202 18.9996 20.3702 18.9996 18.4202C18.9996 16.4702 17.4495 14.9202 15.4995 14.9202ZM15.4995 20.9202C14.0995 20.9202 12.9995 19.8202 12.9995 18.4202C12.9995 17.0202 14.0995 15.9202 15.4995 15.9202C16.8995 15.9202 17.9995 17.0202 17.9995 18.4202C17.9995 19.8202 16.8995 20.9202 15.4995 20.9202Z" fill="#FFCB5B"/>
<path d="M15.4995 21.8702C17.4495 21.9202 18.9995 20.3202 18.9995 18.4202H18.9495C18.6995 18.4202 18.4995 18.6202 18.4495 18.8702C18.3495 19.5702 17.9995 20.2202 17.4995 20.6702C17.0995 21.0702 16.5495 21.3202 15.9495 21.4202C15.6995 21.4202 15.4995 21.6201 15.4995 21.8702Z" fill="#F6B545"/>
<path d="M15.4995 14.97C13.5495 14.92 11.9995 16.52 11.9995 18.42H12.0495C12.2995 18.42 12.4995 18.22 12.5495 17.97C12.6495 17.27 12.9995 16.62 13.4995 16.17C13.8995 15.77 14.4495 15.52 15.0495 15.42C15.2996 15.42 15.4995 15.22 15.4995 14.97Z" fill="#FFE27A"/>
<path d="M13.3495 18.7703C13.3495 17.3703 14.4495 16.2703 15.8495 16.2703C16.4496 16.2703 16.9996 16.4703 17.4495 16.8703C16.9495 16.2703 16.2995 15.9203 15.4995 15.9203C14.0995 15.9203 12.9995 17.0203 12.9995 18.4203C12.9995 19.2203 13.3495 19.8703 13.8995 20.3203C13.5495 19.9203 13.3495 19.3703 13.3495 18.7703Z" fill="#F19920"/>
<path d="M16.9999 19.9699C16.9499 19.9699 16.8999 19.9699 16.8499 19.9199C16.7499 19.8199 16.7499 19.6699 16.8499 19.5699C17.1499 19.2699 17.2999 18.8199 17.2999 18.4199C17.2999 18.2699 17.3999 18.1699 17.5499 18.1699C17.6999 18.1699 17.7999 18.2699 17.7999 18.4199C17.7999 18.9699 17.5999 19.5199 17.2499 19.9199C17.1499 19.9699 17.0499 19.9699 16.9999 19.9699Z" fill="#FFCB5B"/>
<path d="M15.4995 19.9199C15.1995 19.9199 14.9995 19.7199 14.9995 19.4199V17.4199C14.9995 17.1199 15.1995 16.9199 15.4995 16.9199C15.7995 16.9199 15.9995 17.1199 15.9995 17.4199V19.4199C15.9995 19.7199 15.7995 19.9199 15.4995 19.9199Z" fill="#F19920"/>
</g>
<defs>
<clipPath id="clip0_1086_7478">
<rect width="22" height="22" fill="white" transform="translate(0 0.920044)"/>
</clipPath>
</defs>
</svg>
