<svg width="78" height="47" viewBox="0 0 78 47" fill="none" xmlns="http://www.w3.org/2000/svg">
<path d="M19.1207 28.5498H14.8434C14.7018 28.5497 14.5648 28.602 14.4572 28.6972C14.3495 28.7924 14.2782 28.9243 14.2562 29.0691L12.5262 40.4251C12.5183 40.4778 12.5215 40.5317 12.5355 40.583C12.5496 40.6343 12.5743 40.6818 12.6078 40.7223C12.6413 40.7628 12.6829 40.7953 12.7297 40.8176C12.7766 40.8398 12.8275 40.8513 12.879 40.8512H14.921C15.0627 40.8513 15.1997 40.7989 15.3074 40.7036C15.4151 40.6082 15.4863 40.4762 15.5082 40.3312L15.9748 37.2683C15.9967 37.1235 16.0679 36.9916 16.1754 36.8962C16.283 36.8009 16.4199 36.7485 16.5615 36.7484H17.9155C20.733 36.7484 22.3591 35.3367 22.7837 32.5393C22.9751 31.3155 22.7919 30.3539 22.2384 29.6804C21.6305 28.9409 20.5523 28.5498 19.1207 28.5498ZM19.6141 32.6973C19.3802 34.2864 18.2076 34.2864 17.0737 34.2864H16.4282L16.881 31.3187C16.8943 31.2319 16.937 31.1528 17.0016 31.0957C17.0661 31.0386 17.1483 31.0072 17.2332 31.0072H17.529C18.3014 31.0072 19.03 31.0072 19.4065 31.4631C19.631 31.7351 19.6998 32.1391 19.6141 32.6973ZM31.9061 32.6462H29.8579C29.773 32.6462 29.6909 32.6775 29.6263 32.7346C29.5618 32.7917 29.519 32.8708 29.5058 32.9576L29.4151 33.5508L29.2719 33.3358C28.8284 32.6695 27.8396 32.4467 26.8527 32.4467C24.5893 32.4467 22.6562 34.2216 22.2797 36.7115C22.0839 37.9535 22.3622 39.141 23.0427 39.9693C23.6668 40.7308 24.5599 41.0481 25.6225 41.0481C27.4462 41.0481 28.4576 39.8339 28.4576 39.8339L28.3662 40.4232C28.3581 40.4759 28.3611 40.5298 28.375 40.5811C28.3889 40.6325 28.4134 40.6801 28.4468 40.7208C28.4802 40.7614 28.5218 40.794 28.5685 40.8164C28.6153 40.8388 28.6662 40.8505 28.7177 40.8506H30.5627C30.7044 40.8506 30.8415 40.7983 30.9491 40.7029C31.0568 40.6076 31.1281 40.4755 31.15 40.3306L32.257 33.0723C32.2651 33.0197 32.2622 32.9659 32.2483 32.9147C32.2344 32.8634 32.2099 32.8159 32.1765 32.7753C32.1432 32.7348 32.1017 32.7023 32.055 32.68C32.0083 32.6577 31.9575 32.6462 31.9061 32.6462ZM29.0511 36.7736C28.8534 37.9852 27.9247 38.7985 26.7402 38.7985C26.1454 38.7985 25.6701 38.601 25.3649 38.2267C25.0622 37.855 24.9471 37.326 25.0434 36.7367C25.2279 35.5355 26.1723 34.6957 27.3387 34.6957C27.9203 34.6957 28.3931 34.8957 28.7046 35.2733C29.0167 35.6547 29.1405 36.1869 29.0511 36.7736ZM42.8147 32.6462H40.7564C40.6594 32.6463 40.5638 32.671 40.478 32.7181C40.3922 32.7651 40.3189 32.8331 40.2642 32.9162L37.4254 37.2457L36.2221 33.0852C36.1852 32.9583 36.1098 32.8471 36.0071 32.768C35.9043 32.689 35.7798 32.6462 35.6517 32.6462H33.6291C33.5724 32.646 33.5164 32.6599 33.4658 32.6867C33.4153 32.7134 33.3717 32.7523 33.3386 32.8001C33.3055 32.8479 33.2839 32.9031 33.2755 32.9613C33.2672 33.0194 33.2725 33.0788 33.2908 33.1344L35.5579 40.023L33.4265 43.1383C33.3886 43.1936 33.3662 43.2585 33.3616 43.3261C33.357 43.3937 33.3704 43.4613 33.4005 43.5215C33.4305 43.5816 33.4759 43.6321 33.5318 43.6673C33.5877 43.7025 33.6519 43.7212 33.7173 43.7211H35.7731C35.8691 43.7213 35.9636 43.6973 36.0487 43.6513C36.1338 43.6053 36.2068 43.5386 36.2615 43.4569L43.1074 33.2257C43.1445 33.1704 43.1662 33.1056 43.1703 33.0383C43.1744 32.9711 43.1606 32.9039 43.1304 32.8442C43.1003 32.7845 43.0549 32.7345 42.9992 32.6996C42.9436 32.6647 42.8798 32.6462 42.8147 32.6462Z" fill="#253B80"/>
<path d="M49.6296 28.5497H45.3517C45.2102 28.5498 45.0734 28.6021 44.9658 28.6973C44.8583 28.7925 44.7871 28.9243 44.765 29.0691L43.0351 40.425C43.0271 40.4776 43.0302 40.5314 43.0441 40.5827C43.0581 40.6339 43.0826 40.6815 43.116 40.722C43.1494 40.7625 43.1909 40.795 43.2376 40.8173C43.2844 40.8396 43.3352 40.8511 43.3866 40.8511H45.5818C45.6809 40.851 45.7766 40.8142 45.8518 40.7475C45.927 40.6808 45.9768 40.5885 45.9921 40.4872L46.4831 37.2683C46.505 37.1234 46.5761 36.9915 46.6837 36.8961C46.7912 36.8008 46.9281 36.7484 47.0697 36.7483H48.4231C51.2413 36.7483 52.8667 35.3366 53.292 32.5392C53.484 31.3154 53.2995 30.3538 52.746 29.6803C52.1387 28.9408 51.0611 28.5497 49.6296 28.5497ZM50.123 32.6972C49.8897 34.2863 48.7171 34.2863 47.5826 34.2863H46.9378L47.3912 31.3186C47.4042 31.2318 47.4468 31.1527 47.5112 31.0955C47.5757 31.0384 47.6578 31.007 47.7427 31.0072H48.0385C48.8103 31.0072 49.5395 31.0072 49.916 31.463C50.1405 31.735 50.2087 32.1391 50.123 32.6972ZM62.4144 32.6461H60.3674C60.2825 32.6458 60.2003 32.6771 60.1358 32.7343C60.0713 32.7915 60.0288 32.8707 60.0159 32.9576L59.9252 33.5507L59.7814 33.3357C59.3379 32.6694 58.3498 32.4466 57.3629 32.4466C55.0995 32.4466 53.1669 34.2216 52.7904 36.7114C52.5953 37.9534 52.8724 39.141 53.5528 39.9692C54.1782 40.7307 55.0701 41.048 56.1327 41.048C57.9564 41.048 58.9677 39.8338 58.9677 39.8338L58.8764 40.4231C58.8682 40.4759 58.8712 40.5299 58.8852 40.5813C58.8992 40.6328 58.9238 40.6805 58.9574 40.7212C58.9909 40.7618 59.0326 40.7944 59.0795 40.8167C59.1264 40.8391 59.1775 40.8506 59.2291 40.8505H61.0735C61.2151 40.8504 61.352 40.798 61.4595 40.7026C61.5671 40.6073 61.6382 40.4753 61.6601 40.3305L62.7677 33.0722C62.7756 33.0194 62.7723 32.9656 62.7582 32.9143C62.744 32.863 62.7193 32.8154 62.6857 32.775C62.6522 32.7345 62.6105 32.702 62.5637 32.6798C62.5168 32.6575 62.4659 32.646 62.4144 32.6461ZM59.5593 36.7735C59.363 37.9851 58.433 38.7984 57.2484 38.7984C56.6549 38.7984 56.1783 38.6009 55.8731 38.2266C55.5704 37.8549 55.4566 37.3259 55.5516 36.7366C55.7374 35.5354 56.6805 34.6956 57.8469 34.6956C58.4286 34.6956 58.9014 34.8957 59.2129 35.2732C59.5262 35.6546 59.65 36.1869 59.5593 36.7735ZM64.8291 28.8612L63.0736 40.425C63.0655 40.4776 63.0686 40.5314 63.0825 40.5827C63.0965 40.6339 63.121 40.6815 63.1544 40.722C63.1879 40.7625 63.2293 40.795 63.2761 40.8173C63.3228 40.8396 63.3736 40.8511 63.4251 40.8511H65.19C65.4833 40.8511 65.7322 40.631 65.7772 40.3311L67.5084 28.9758C67.5164 28.9232 67.5134 28.8694 67.4994 28.8181C67.4855 28.7668 67.4609 28.7192 67.4275 28.6787C67.3941 28.6381 67.3527 28.6055 67.3059 28.5832C67.2592 28.5608 67.2084 28.5492 67.1569 28.5491H65.1806C65.0958 28.5494 65.0138 28.581 64.9494 28.6382C64.885 28.6953 64.8423 28.7744 64.8291 28.8612Z" fill="#179BD7"/>
<path d="M37.2977 22.6842L37.6248 20.533L36.8962 20.5156H33.417L35.8349 4.64229C35.8421 4.59379 35.8659 4.54959 35.9019 4.51773C35.9379 4.48588 35.9839 4.46849 36.0312 4.46875H41.8977C43.8452 4.46875 45.1893 4.88836 45.891 5.71657C46.22 6.1051 46.4295 6.51111 46.5308 6.95791C46.6371 7.42674 46.639 7.98686 46.5352 8.67002L46.5277 8.71988V9.15762L46.8566 9.35059C47.1078 9.48233 47.3335 9.66053 47.5227 9.8764C47.8041 10.2086 47.9861 10.6308 48.0631 11.1313C48.1425 11.6461 48.1162 12.2587 47.9861 12.9522C47.836 13.75 47.5934 14.4448 47.2657 15.0134C46.9765 15.5227 46.5877 15.9638 46.1243 16.3085C45.689 16.6283 45.1718 16.8712 44.587 17.0266C44.0204 17.1794 43.3743 17.2565 42.6657 17.2565H42.2091C41.8827 17.2565 41.5656 17.3782 41.3167 17.5964C41.0681 17.817 40.9032 18.1217 40.8514 18.4564L40.817 18.65L40.2391 22.4414L40.2128 22.5806C40.2059 22.6246 40.194 22.6466 40.1765 22.6615C40.1596 22.6759 40.1384 22.6839 40.1165 22.6842H37.2977Z" fill="#253B80"/>
<path d="M47.1679 8.77039C47.1504 8.8863 47.1304 9.0048 47.1078 9.12654C46.3342 13.2391 43.6874 14.6598 40.307 14.6598H38.5859C38.1725 14.6598 37.8241 14.9706 37.7597 15.3928L36.8785 21.1793L36.6289 22.8195C36.619 22.8846 36.6228 22.9511 36.6401 23.0145C36.6573 23.0779 36.6877 23.1367 36.729 23.1868C36.7703 23.2369 36.8216 23.2771 36.8794 23.3047C36.9371 23.3323 37 23.3466 37.0636 23.3466H40.1163C40.4778 23.3466 40.7849 23.0746 40.8418 22.7055L40.8718 22.545L41.4465 18.7685L41.4834 18.5613C41.5397 18.1909 41.8474 17.9189 42.2089 17.9189H42.6655C45.6231 17.9189 47.9384 16.6756 48.6151 13.0779C48.8978 11.5749 48.7514 10.32 48.0034 9.43736C47.7664 9.16433 47.4832 8.93831 47.1679 8.77039Z" fill="#179BD7"/>
<path d="M46.3587 8.43654C46.1116 8.36256 45.8603 8.30481 45.6063 8.26365C45.1043 8.18377 44.5969 8.14544 44.089 8.14903H39.4909C39.3159 8.14889 39.1467 8.21358 39.0137 8.33139C38.8808 8.4492 38.7929 8.61237 38.7661 8.7914L37.7879 15.206L37.7598 15.3931C37.7902 15.1889 37.8903 15.0027 38.0418 14.8683C38.1934 14.7338 38.3864 14.66 38.5859 14.6601H40.3071C43.6875 14.6601 46.3343 13.2387 47.1079 9.12683C47.1311 9.00509 47.1504 8.88659 47.168 8.77068C46.9638 8.65984 46.751 8.56691 46.5319 8.49288C46.4744 8.47314 46.4167 8.45436 46.3587 8.43654Z" fill="#222D65"/>
<path d="M38.7666 8.79135C38.7933 8.61227 38.8811 8.44903 39.0141 8.33128C39.1471 8.21352 39.3165 8.14908 39.4915 8.14964H44.0896C44.6343 8.14964 45.1428 8.18655 45.6068 8.26425C45.9209 8.31535 46.2306 8.39178 46.5331 8.49284C46.7614 8.57119 46.9734 8.66379 47.1691 8.77063C47.3993 7.25085 47.1673 6.21607 46.3736 5.27907C45.4986 4.24753 43.9195 3.80591 41.8987 3.80591H36.0323C35.6195 3.80591 35.2674 4.11673 35.2036 4.53958L32.7601 20.576C32.7487 20.6505 32.7531 20.7266 32.7728 20.7992C32.7925 20.8717 32.8272 20.939 32.8745 20.9963C32.9217 21.0537 32.9804 21.0997 33.0465 21.1314C33.1126 21.163 33.1845 21.1794 33.2573 21.1795H36.8791L37.7885 15.2059L38.7666 8.79135Z" fill="#253B80"/>
</svg>
